<svg width="2019" height="3217" viewBox="0 0 2019 3217" fill="none" xmlns="http://www.w3.org/2000/svg">
<g style="mix-blend-mode:multiply" filter="url(#filter0_d_1_21)">
<path d="M1728.5 2927.81C1087.72 3155.2 702.89 3126.89 59.451 2840.06C41.8308 2832.21 25.4104 2850.38 36.9866 2865.81C335.787 3264.14 1384.48 3342.11 1748.44 2955.84C1761.97 2941.48 1747.09 2921.22 1728.5 2927.81Z" fill="#FF9A00"/>
<path d="M1991.96 2771.19L1777.52 2798.38C1754.77 2801.27 1753.98 2833.94 1776.57 2837.92L1873.97 2855.09C1883.53 2856.77 1890.5 2865.08 1890.5 2874.78V3012.05C1890.5 3034.27 1921.31 3039.92 1929.2 3019.15L2013.17 2798.13C2018.53 2784.03 2006.93 2769.29 1991.96 2771.19Z" fill="#FF9A00"/>
<path d="M1021 2696C1021 2749.02 978.019 2792 925 2792C871.981 2792 829 2749.02 829 2696C829 2642.98 871.981 2600 925 2600C978.019 2600 1021 2642.98 1021 2696Z" fill="#CCCACA"/>
<path fill-rule="evenodd" clip-rule="evenodd" d="M34 0C17.4315 0 4 13.4314 4 30V2666C4 2682.57 17.4315 2696 34 2696H107C90.4315 2696 77 2682.57 77 2666V284C77 267.431 90.4315 254 107 254H1744C1760.57 254 1774 267.431 1774 284V2666C1774 2682.57 1760.57 2696 1744 2696H1816C1832.57 2696 1846 2682.57 1846 2666V30C1846 13.4315 1832.57 0 1816 0H34Z" fill="#F2F2F2"/>
<path d="M1180 87H671C640.072 87 615 112.072 615 143C615 173.928 640.072 199 671 199H1180C1210.93 199 1236 173.928 1236 143C1236 112.072 1210.93 87 1180 87Z" fill="#CCCACA"/>
</g>
<defs>
<filter id="filter0_d_1_21" x="0" y="0" width="2018.5" height="3216.4" filterUnits="userSpaceOnUse" color-interpolation-filters="sRGB">
<feFlood flood-opacity="0" result="BackgroundImageFix"/>
<feColorMatrix in="SourceAlpha" type="matrix" values="0 0 0 0 0 0 0 0 0 0 0 0 0 0 0 0 0 0 127 0" result="hardAlpha"/>
<feOffset dy="4"/>
<feGaussianBlur stdDeviation="2"/>
<feComposite in2="hardAlpha" operator="out"/>
<feColorMatrix type="matrix" values="0 0 0 0 0 0 0 0 0 0 0 0 0 0 0 0 0 0 0.25 0"/>
<feBlend mode="normal" in2="BackgroundImageFix" result="effect1_dropShadow_1_21"/>
<feBlend mode="normal" in="SourceGraphic" in2="effect1_dropShadow_1_21" result="shape"/>
</filter>
</defs>
</svg>
