<svg width="2021" height="3209" viewBox="0 0 2021 3209" fill="none" xmlns="http://www.w3.org/2000/svg">
<path d="M1724.5 2927.81C1083.72 3155.2 698.89 3126.89 55.451 2840.06C37.8308 2832.21 21.4104 2850.38 32.9866 2865.81C331.787 3264.14 1380.48 3342.11 1744.44 2955.84C1757.97 2941.48 1743.09 2921.22 1724.5 2927.81Z" fill="#FF9A00"/>
<path d="M1987.96 2771.19L1773.52 2798.38C1750.77 2801.27 1749.98 2833.94 1772.57 2837.92L1869.97 2855.09C1879.53 2856.77 1886.5 2865.08 1886.5 2874.78V3012.05C1886.5 3034.27 1917.31 3039.92 1925.2 3019.15L2009.17 2798.13C2014.53 2784.03 2002.93 2769.29 1987.96 2771.19Z" fill="#FF9A00"/>
<path d="M1724.5 2927.81C1083.72 3155.2 698.89 3126.89 55.451 2840.06C37.8308 2832.21 21.4104 2850.38 32.9866 2865.81C331.787 3264.14 1380.48 3342.11 1744.44 2955.84C1757.97 2941.48 1743.09 2921.22 1724.5 2927.81Z" stroke="#FF9A00"/>
<path d="M1987.96 2771.19L1773.52 2798.38C1750.77 2801.27 1749.98 2833.94 1772.57 2837.92L1869.97 2855.09C1879.53 2856.77 1886.5 2865.08 1886.5 2874.78V3012.05C1886.5 3034.27 1917.31 3039.92 1925.2 3019.15L2009.17 2798.13C2014.53 2784.03 2002.93 2769.29 1987.96 2771.19Z" stroke="#FF9A00"/>
<circle cx="921" cy="2696" r="96" fill="#CCCACA"/>
<path fill-rule="evenodd" clip-rule="evenodd" d="M30 0C13.4315 0 0 13.4314 0 30V2666C0 2682.57 13.4315 2696 30 2696H103C86.4315 2696 73 2682.57 73 2666V284C73 267.431 86.4315 254 103 254H1740C1756.57 254 1770 267.431 1770 284V2666C1770 2682.57 1756.57 2696 1740 2696H1812C1828.57 2696 1842 2682.57 1842 2666V30C1842 13.4315 1828.57 0 1812 0H30Z" fill="#F2F2F2"/>
<path d="M1176 87H667C636.072 87 611 112.072 611 143C611 173.928 636.072 199 667 199H1176C1206.93 199 1232 173.928 1232 143C1232 112.072 1206.93 87 1176 87Z" fill="#CCCACA"/>
</svg>
