<svg width="750" height="732" viewBox="0 0 750 732" fill="none" xmlns="http://www.w3.org/2000/svg">
<path d="M375 0.374611C167.95 0.374611 0.100098 168.225 0.100098 375.275C0.100098 539.9 106.225 679.775 253.8 730.15L256.45 730.925C275.2 734.45 282.075 722.875 282.075 712.9C282.075 704 281.775 680.4 281.6 649.175C177.325 671.8 155.325 598.875 155.325 598.875C148.125 575.75 133.375 556.75 114 544.275L113.6 544.05C79.6501 520.8 116.225 521.275 116.225 521.275C140.9 524.75 161.575 539.225 173.45 559.525L173.65 559.9C187.5 584.775 213.65 601.325 243.675 601.325C258.075 601.325 271.575 597.525 283.225 590.85L282.825 591.05C284.625 571.275 293.35 553.825 306.55 540.925L306.575 540.9C223.325 531.525 135.8 499.275 135.8 355.65C135.8 354.975 135.775 354.2 135.775 353.425C135.775 315.4 150.45 280.8 174.45 254.975L174.375 255.075C169.3 241.525 166.35 225.875 166.35 209.55C166.35 190.125 170.5 171.65 177.975 155L177.625 155.85C177.625 155.85 209.025 145.8 280.725 194.275C308.825 186.25 341.1 181.625 374.45 181.625C407.8 181.625 440.075 186.25 470.675 194.875L468.175 194.275C539.4 145.8 570.8 155.85 570.8 155.85C577.925 171.9 582.075 190.6 582.075 210.275C582.075 226.325 579.325 241.725 574.25 256.025L574.55 255.075C598.375 280.875 613 315.475 613 353.5C613 354.275 613 355.025 612.975 355.775V355.65C612.975 499.675 525.35 531.375 441.925 540.6C457.725 556.775 467.475 578.9 467.475 603.325C467.475 605.65 467.375 607.975 467.2 610.275L467.225 609.975C467.225 660.15 466.75 700.45 466.75 712.625C466.75 722.475 473.3 734.175 492.525 730.425C643.225 679.7 749.825 539.7 749.825 374.775C749.825 167.975 582.175 0.349609 375.4 0.349609C375.25 0.349609 375.075 0.349609 374.925 0.349609H374.95L375 0.374611Z" fill="#177FBF"/>
<path d="M375 0.374611C167.95 0.374611 0.100098 168.225 0.100098 375.275C0.100098 539.9 106.225 679.775 253.8 730.15L256.45 730.925C275.2 734.45 282.075 722.875 282.075 712.9C282.075 704 281.775 680.4 281.6 649.175C177.325 671.8 155.325 598.875 155.325 598.875C148.125 575.75 133.375 556.75 114 544.275L113.6 544.05C79.6501 520.8 116.225 521.275 116.225 521.275C140.9 524.75 161.575 539.225 173.45 559.525L173.65 559.9C187.5 584.775 213.65 601.325 243.675 601.325C258.075 601.325 271.575 597.525 283.225 590.85L282.825 591.05C284.625 571.275 293.35 553.825 306.55 540.925L306.575 540.9C223.325 531.525 135.8 499.275 135.8 355.65C135.8 354.975 135.775 354.2 135.775 353.425C135.775 315.4 150.45 280.8 174.45 254.975L174.375 255.075C169.3 241.525 166.35 225.875 166.35 209.55C166.35 190.125 170.5 171.65 177.975 155L177.625 155.85C177.625 155.85 209.025 145.8 280.725 194.275C308.825 186.25 341.1 181.625 374.45 181.625C407.8 181.625 440.075 186.25 470.675 194.875L468.175 194.275C539.4 145.8 570.8 155.85 570.8 155.85C577.925 171.9 582.075 190.6 582.075 210.275C582.075 226.325 579.325 241.725 574.25 256.025L574.55 255.075C598.375 280.875 613 315.475 613 353.5C613 354.275 613 355.025 612.975 355.775V355.65C612.975 499.675 525.35 531.375 441.925 540.6C457.725 556.775 467.475 578.9 467.475 603.325C467.475 605.65 467.375 607.975 467.2 610.275L467.225 609.975C467.225 660.15 466.75 700.45 466.75 712.625C466.75 722.475 473.3 734.175 492.525 730.425C643.225 679.7 749.825 539.7 749.825 374.775C749.825 167.975 582.175 0.349609 375.4 0.349609C375.25 0.349609 375.075 0.349609 374.925 0.349609H374.95L375 0.374611Z" fill="url(#paint0_radial_9_36)" fill-opacity="0.2"/>
<defs>
<radialGradient id="paint0_radial_9_36" cx="0" cy="0" r="1" gradientUnits="userSpaceOnUse" gradientTransform="translate(261.5 631) rotate(161.367) scale(503.912 516.663)">
<stop/>
<stop offset="1" stop-opacity="0"/>
</radialGradient>
</defs>
</svg>
