<svg width="734" height="734" viewBox="0 0 734 734" fill="none" xmlns="http://www.w3.org/2000/svg">
<path fill-rule="evenodd" clip-rule="evenodd" d="M0.333252 61.594C0.333252 45.3467 6.78759 29.7647 18.2763 18.276C29.7649 6.78734 45.3469 0.333008 61.5943 0.333008H672.37C680.417 0.333008 688.383 1.91767 695.813 4.99634C703.247 8.07501 710 12.5873 715.69 18.276C721.377 23.9647 725.89 30.718 728.97 38.1503C732.047 45.583 733.633 53.549 733.633 61.594V672.37C733.633 680.416 732.047 688.383 728.97 695.813C725.89 703.246 721.377 710 715.69 715.69C710 721.376 703.247 725.89 695.813 728.97C688.383 732.046 680.417 733.633 672.37 733.633H61.5943C45.3469 733.633 29.7649 727.176 18.2763 715.69C6.78759 704.2 0.333252 688.62 0.333252 672.37V61.594ZM290.597 279.903H389.9V329.8C404.213 301.106 440.893 275.32 495.997 275.32C601.623 275.32 626.693 332.426 626.693 437.21V631.276H519.753V461.073C519.753 401.403 505.44 367.746 469.033 367.746C418.543 367.746 397.537 404.03 397.537 461.073V631.276H290.597V279.903ZM107.273 626.693H214.212V275.32H107.273V626.693ZM229.489 160.742C229.489 169.77 227.711 178.71 224.256 187.05C220.801 195.391 215.737 202.97 209.354 209.353C202.97 215.737 195.391 220.801 187.051 224.256C178.71 227.711 169.77 229.489 160.742 229.489C151.715 229.489 142.775 227.711 134.434 224.256C126.093 220.801 118.515 215.737 112.131 209.353C105.747 202.97 100.684 195.391 97.2286 187.05C93.7739 178.71 91.9956 169.77 91.9956 160.742C91.9956 142.509 99.2386 125.023 112.131 112.131C125.024 99.2383 142.51 91.9953 160.742 91.9953C178.975 91.9953 196.461 99.2383 209.354 112.131C222.246 125.023 229.489 142.509 229.489 160.742Z" fill="#177FBF"/>
<path fill-rule="evenodd" clip-rule="evenodd" d="M0.333252 61.594C0.333252 45.3467 6.78759 29.7647 18.2763 18.276C29.7649 6.78734 45.3469 0.333008 61.5943 0.333008H672.37C680.417 0.333008 688.383 1.91767 695.813 4.99634C703.247 8.07501 710 12.5873 715.69 18.276C721.377 23.9647 725.89 30.718 728.97 38.1503C732.047 45.583 733.633 53.549 733.633 61.594V672.37C733.633 680.416 732.047 688.383 728.97 695.813C725.89 703.246 721.377 710 715.69 715.69C710 721.376 703.247 725.89 695.813 728.97C688.383 732.046 680.417 733.633 672.37 733.633H61.5943C45.3469 733.633 29.7649 727.176 18.2763 715.69C6.78759 704.2 0.333252 688.62 0.333252 672.37V61.594ZM290.597 279.903H389.9V329.8C404.213 301.106 440.893 275.32 495.997 275.32C601.623 275.32 626.693 332.426 626.693 437.21V631.276H519.753V461.073C519.753 401.403 505.44 367.746 469.033 367.746C418.543 367.746 397.537 404.03 397.537 461.073V631.276H290.597V279.903ZM107.273 626.693H214.212V275.32H107.273V626.693ZM229.489 160.742C229.489 169.77 227.711 178.71 224.256 187.05C220.801 195.391 215.737 202.97 209.354 209.353C202.97 215.737 195.391 220.801 187.051 224.256C178.71 227.711 169.77 229.489 160.742 229.489C151.715 229.489 142.775 227.711 134.434 224.256C126.093 220.801 118.515 215.737 112.131 209.353C105.747 202.97 100.684 195.391 97.2286 187.05C93.7739 178.71 91.9956 169.77 91.9956 160.742C91.9956 142.509 99.2386 125.023 112.131 112.131C125.024 99.2383 142.51 91.9953 160.742 91.9953C178.975 91.9953 196.461 99.2383 209.354 112.131C222.246 125.023 229.489 142.509 229.489 160.742Z" fill="url(#paint0_radial_9_38)" fill-opacity="0.2"/>
<defs>
<radialGradient id="paint0_radial_9_38" cx="0" cy="0" r="1" gradientUnits="userSpaceOnUse" gradientTransform="translate(81 563.5) rotate(128.234) scale(546.155)">
<stop/>
<stop offset="1" stop-opacity="0"/>
</radialGradient>
</defs>
</svg>
