<svg width="47" height="75" viewBox="0 0 47 75" fill="none" xmlns="http://www.w3.org/2000/svg">
<path d="M40.314 68.441C25.3345 73.7564 16.3382 73.0947 1.29631 66.3897C0.884402 66.2061 0.500537 66.6308 0.771158 66.9916C7.75629 76.3031 32.2719 78.1256 40.7803 69.0962C41.0966 68.7605 40.7487 68.2868 40.314 68.441Z" fill="#FF9A00"/>
<path d="M40.314 68.441C25.3345 73.7564 16.3382 73.0947 1.29631 66.3897C0.884402 66.2061 0.500537 66.6308 0.771158 66.9916C7.75629 76.3031 32.2719 78.1256 40.7803 69.0962C41.0966 68.7605 40.7487 68.2868 40.314 68.441Z" fill="url(#paint0_angular_2_32)" fill-opacity="0.3"/>
<path d="M46.473 64.7798L41.4601 65.4154C40.9283 65.4829 40.9098 66.2466 41.4378 66.3397L43.7148 66.7409C43.9383 66.7803 44.1012 66.9745 44.1012 67.2014V70.4101C44.1012 70.9295 44.8214 71.0617 45.0058 70.5762L46.9689 65.4096C47.0942 65.0798 46.8231 64.7354 46.473 64.7798Z" fill="#FF9A00"/>
<path d="M46.473 64.7798L41.4601 65.4154C40.9283 65.4829 40.9098 66.2466 41.4378 66.3397L43.7148 66.7409C43.9383 66.7803 44.1012 66.9745 44.1012 67.2014V70.4101C44.1012 70.9295 44.8214 71.0617 45.0058 70.5762L46.9689 65.4096C47.0942 65.0798 46.8231 64.7354 46.473 64.7798Z" fill="url(#paint1_angular_2_32)" fill-opacity="0.3"/>
<path fill-rule="evenodd" clip-rule="evenodd" d="M0.701318 0C0.313991 0 0 0.313975 0 0.701284V62.3208C0 62.7081 0.313992 63.0221 0.701319 63.0221H2.40786C2.02053 63.0221 1.70654 62.7081 1.70654 62.3208V2.73501C1.70654 2.3477 2.02053 2.03372 2.40786 2.03372H40.6764C41.0638 2.03372 41.3778 2.3477 41.3778 2.73501V62.3208C41.3778 62.7081 41.0638 63.0221 40.6764 63.0221H42.3596C42.7469 63.0221 43.0609 62.7081 43.0609 62.3208V0.701284C43.0609 0.313976 42.7469 0 42.3596 0H0.701318Z" fill="#F2F2F2"/>
<path fill-rule="evenodd" clip-rule="evenodd" d="M0.701318 0C0.313991 0 0 0.313975 0 0.701284V62.3208C0 62.7081 0.313992 63.0221 0.701319 63.0221H2.40786C2.02053 63.0221 1.70654 62.7081 1.70654 62.3208V2.73501C1.70654 2.3477 2.02053 2.03372 2.40786 2.03372H40.6764C41.0638 2.03372 41.3778 2.3477 41.3778 2.73501V62.3208C41.3778 62.7081 41.0638 63.0221 40.6764 63.0221H42.3596C42.7469 63.0221 43.0609 62.7081 43.0609 62.3208V0.701284C43.0609 0.313976 42.7469 0 42.3596 0H0.701318Z" fill="url(#paint2_radial_2_32)" fill-opacity="0.3"/>
<path d="M22.3941 4.04402C22.075 4.81279 20.9859 4.81279 20.6668 4.04402L19.8404 2.05324C19.5848 1.43749 20.0373 0.759725 20.7041 0.759725H22.3568C23.0236 0.759725 23.4761 1.43749 23.2205 2.05324L22.3941 4.04402Z" fill="#F2F2F2"/>
<path d="M22.3941 4.04402C22.075 4.81279 20.9859 4.81279 20.6668 4.04402L19.8404 2.05324C19.5848 1.43749 20.0373 0.759725 20.7041 0.759725H22.3568C23.0236 0.759725 23.4761 1.43749 23.2205 2.05324L22.3941 4.04402Z" fill="url(#paint3_radial_2_32)" fill-opacity="0.3"/>
<defs>
<radialGradient id="paint0_angular_2_32" cx="0" cy="0" r="1" gradientUnits="userSpaceOnUse" gradientTransform="translate(4.05597 87.2398) rotate(-11.6661) scale(9.942 6.22975)">
<stop offset="0.183337"/>
<stop offset="0.676696" stop-opacity="0.880208"/>
<stop offset="0.871774" stop-opacity="0"/>
</radialGradient>
<radialGradient id="paint1_angular_2_32" cx="0" cy="0" r="1" gradientUnits="userSpaceOnUse" gradientTransform="translate(4.05597 87.2398) rotate(-11.6661) scale(9.942 6.22975)">
<stop offset="0.183337"/>
<stop offset="0.676696" stop-opacity="0.880208"/>
<stop offset="0.871774" stop-opacity="0"/>
</radialGradient>
<radialGradient id="paint2_radial_2_32" cx="0" cy="0" r="1" gradientUnits="userSpaceOnUse" gradientTransform="translate(-13.5822 75.9842) rotate(-57.9311) scale(85.4182 53.5273)">
<stop offset="0.183337"/>
<stop offset="0.676696" stop-opacity="0.880208"/>
<stop offset="1" stop-opacity="0"/>
</radialGradient>
<radialGradient id="paint3_radial_2_32" cx="0" cy="0" r="1" gradientUnits="userSpaceOnUse" gradientTransform="translate(-13.5822 75.9842) rotate(-57.9311) scale(85.4182 53.5273)">
<stop offset="0.183337"/>
<stop offset="0.676696" stop-opacity="0.880208"/>
<stop offset="1" stop-opacity="0"/>
</radialGradient>
</defs>
</svg>
